<svg width="24" height="24" xmlns="http://www.w3.org/2000/svg" data-name="Layer 1" viewBox="0 0 100 100"><path d="M50 87.52H15.82A15.43 15.43 0 0 1 .59 76.06a15.68 15.68 0 0 1-.55-4C0 61.19 0 50.3 0 39.42c0-2.82 1.76-3.87 4.29-2.55q21.3 11.07 42.57 22.19a6.18 6.18 0 0 0 6.29 0Q74.32 48 95.54 37a4.89 4.89 0 0 1 1.31-.5c1.94-.36 3.13.61 3.13 2.57v28.27a44.52 44.52 0 0 1-.26 7.32 15.24 15.24 0 0 1-15.28 12.85c-9.28.08-18.55 0-27.83 0H50z"/><path d="M49.85 12.47h34.07c6.67 0 11.6 3 14.62 9 1 1.93.49 3.19-1.45 4.2Q74.49 37.41 51.9 49.19a3.77 3.77 0 0 1-3.74 0L2.57 25.46c-1.65-.86-2-1.93-1.26-3.61 2.89-6.17 7.81-9.3 14.57-9.35 11.32-.08 22.64 0 34 0z"/></svg>